<?xml version="1.0" encoding="UTF-8"?>
<svg version="1.1" xmlns="http://www.w3.org/2000/svg" width="1000" height="287">
<path d="M0 0 C5.27822817 2.63911409 8.2196691 6.49173974 10.41113281 11.94506836 C11.57142508 15.99406503 11.52833954 20.0645809 11.5 24.25 C11.49572998 25.2100293 11.49145996 26.17005859 11.48706055 27.15917969 C11.20414241 39.30366545 8.67349119 55.10972247 1 65 C0.19433594 65.47953125 -0.61132812 65.9590625 -1.44140625 66.453125 C-4.37184289 68.22480883 -5.58745297 69.89285303 -7.4375 72.75 C-10.38968428 77.13646988 -13.3406809 81.17434821 -17 85 C-17.99 85 -18.98 85 -20 85 C-21.66904647 86.52679827 -21.66904647 86.52679827 -23.25 88.5625 C-26.17515702 92.06523579 -29.23436876 95.29214931 -32.51953125 98.45703125 C-34.21835505 100.13707372 -34.21835505 100.13707372 -36 103 C-39.125 103.1875 -39.125 103.1875 -42 103 C-41.60167969 102.54109375 -41.20335937 102.0821875 -40.79296875 101.609375 C-38.08857938 98.47728415 -35.42008229 95.36122541 -33 92 C-33.88534424 91.81751709 -33.88534424 91.81751709 -34.78857422 91.63134766 C-38.96789885 90.4381777 -42.47864629 87.50162902 -46.04296875 85.0625 C-47.65901961 83.98513276 -49.32644642 82.98567692 -51 82 C-51.99 82.495 -51.99 82.495 -53 83 C-61.65313425 76.50053472 -61.65313425 76.50053472 -65.375 72.5625 C-67.74638999 69.65073164 -67.74638999 69.65073164 -71 70 C-79.52927953 63.235399 -85.3860693 50.55779664 -87 40 C-87.72487453 29.21116973 -87.72487453 29.21116973 -85 25 C-80.32744283 21.42102004 -76.46763684 19.57537185 -70.5078125 19.65234375 C-61.9544773 20.83808648 -54.02630544 25.17802568 -47 30 C-46.50371094 29.29875 -46.00742187 28.5975 -45.49609375 27.875 C-34.14917468 12.02806938 -21.37892107 -3.18165956 0 0 Z M-35 26 C-35 26.66 -35 27.32 -35 28 C-35.66 28 -36.32 28 -37 28 C-38.35712166 29.55855981 -38.35712166 29.55855981 -39.625 31.5 C-40.07101562 32.1496875 -40.51703125 32.799375 -40.9765625 33.46875 C-41.31429687 33.9740625 -41.65203125 34.479375 -42 35 C-40.7260411 37.03833424 -39.38938077 39.03852126 -38 41 C-37.34 41 -36.68 41 -36 41 C-29.37543373 54.15961138 -29.37543373 54.15961138 -30 59 C-33.69530278 60.36863066 -35.45274302 59.41890279 -39 58 C-42.09030322 58.1993744 -43.37265469 59.26957999 -45.9375 61.125 C-49 63 -49 63 -51.8125 62.875 C-54 62 -54 62 -55 60 C-55.59214018 53.60488605 -54.1449583 48.74518927 -51.97265625 42.734375 C-51.17557734 40.49359092 -50.52389808 38.316181 -50 36 C-55.93168377 33.30378011 -60.59088162 32.23150883 -67 34 C-69.26313679 35.87947452 -69.26313679 35.87947452 -69.5 38.875 C-69.0974983 50.97520747 -58.00600979 62.42429533 -49.80859375 70.39453125 C-46.70375496 73.15066244 -43.38440234 75.60015107 -40 78 C-43.62276315 76.6744419 -46.63505348 75.05653045 -49.8125 72.875 C-50.60269531 72.33617187 -51.39289063 71.79734375 -52.20703125 71.2421875 C-52.79871094 70.83226562 -53.39039063 70.42234375 -54 70 C-53.67 70.99 -53.34 71.98 -53 73 C-52.34 73 -51.68 73 -51 73 C-51 73.66 -51 74.32 -51 75 C-51.99 75.495 -51.99 75.495 -53 76 C-48.38 79.3 -43.76 82.6 -39 86 C-33.70777649 83.35388824 -31.41642335 79.71720598 -28 75 C-27.50371094 74.34128906 -27.00742187 73.68257812 -26.49609375 73.00390625 C-16.62970748 59.21247257 -9.54793103 42.09251238 -10 25 C-10.96650362 22.43124816 -11.52249394 21.34107575 -13.75 19.75 C-21.76889895 17.07703368 -28.44692471 21.63128314 -35 26 Z M-45 41 C-46.14143119 47.65083524 -46.14143119 47.65083524 -44.8125 54.125 C-44.214375 54.74375 -43.61625 55.3625 -43 56 C-41.68 56 -40.36 56 -39 56 C-38.50074102 49.88407749 -39.64722523 46.93055113 -43 42 C-43.66 41.67 -44.32 41.34 -45 41 Z M-8 45 C-7 47 -7 47 -7 47 Z M4 49 C5 51 5 51 5 51 Z M3 52 C4 54 4 54 4 54 Z M2 54 C3 57 3 57 3 57 Z M1 57 C2 59 2 59 2 59 Z M0 59 C1 61 1 61 1 61 Z M-15 60 C-14 62 -14 62 -14 62 Z M-1 61 C0 63 0 63 0 63 Z M-16 62 C-16 65 -16 65 -16 65 Z M-18 65 C-17 67 -17 67 -17 67 Z M-19 67 C-19.47308594 67.60585937 -19.94617188 68.21171875 -20.43359375 68.8359375 C-25.38987712 75.11582871 -30.58679481 81.11063325 -36 87 C-34.02 87.99 -34.02 87.99 -32 89 C-32 89.66 -32 90.32 -32 91 C-28.64379729 89.61122646 -26.92701272 88.08322035 -25 85 C-25 84.34 -25 83.68 -25 83 C-24.34 83 -23.68 83 -23 83 C-21.61061923 81.03852126 -20.2739589 79.03833424 -19 77 C-19.33 76.34 -19.66 75.68 -20 75 C-20.99 75.495 -20.99 75.495 -22 76 C-20.92578125 74.2421875 -19.8515625 72.484375 -18.77734375 70.7265625 C-18.39255859 69.87191406 -18.39255859 69.87191406 -18 69 C-18.33 68.34 -18.66 67.68 -19 67 Z " fill="#FF5E07" transform="translate(538,41)"/>
<path d="M0 0 C6.58117326 3.74351978 6.58117326 3.74351978 8 8 C7.34 8.99 6.68 9.98 6 11 C5.45472656 10.84402344 4.90945313 10.68804687 4.34765625 10.52734375 C-1.32182516 9.06393915 -6.24733266 8.72876324 -12 10 C-13.29921346 11.10254126 -13.29921346 11.10254126 -13.4375 13.8125 C-13.24673887 24.15599237 -4.55960013 34.55214142 2.48193359 41.45214844 C5.06639259 43.90108383 7.69840474 46.29138735 10.36328125 48.65234375 C12.31191579 50.38735021 14.18808022 52.12623996 16 54 C12.23880524 53.37606349 9.81039958 51.65226285 6.75 49.4375 C5.85796875 48.79683594 4.9659375 48.15617187 4.046875 47.49609375 C3.37140625 47.00238281 2.6959375 46.50867188 2 46 C2.66 47.32 3.32 48.64 4 50 C3.67 50.33 3.34 50.66 3 51 C7.29 53.97 11.58 56.94 16 60 C15.505 61.485 15.505 61.485 15 63 C10.89041233 61.54955729 7.56741255 59.48889248 4 57 C3.01 57.495 3.01 57.495 2 58 C-6.65313425 51.50053472 -6.65313425 51.50053472 -10.375 47.5625 C-12.74638999 44.65073164 -12.74638999 44.65073164 -16 45 C-24.52927953 38.235399 -30.3860693 25.55779664 -32 15 C-32.72487453 4.21116973 -32.72487453 4.21116973 -30 0 C-19.68085269 -7.90402773 -10.99393119 -5.12677604 0 0 Z " fill="#FF0606" transform="translate(483,66)"/>
<path d="M0 0 C0.15108358 9.01465359 -0.04012529 18.02931909 -1 27 C-2 28 -2 28 -5.5625 28.0625 C-6.696875 28.041875 -7.83125 28.02125 -9 28 C-9 26.68 -9 25.36 -9 24 C-9.99 24 -10.98 24 -12 24 C-12 25.32 -12 26.64 -12 28 C-13.98 28 -15.96 28 -18 28 C-18.33 27.01 -18.66 26.02 -19 25 C-19.33 25.33 -19.66 25.66 -20 26 C-22.97 26 -25.94 26 -29 26 C-29 17.75 -29 9.5 -29 1 C-19.00572141 -0.37018335 -10.04967835 -1.43290212 0 0 Z M-19 4 C-18 8 -18 8 -18 8 Z M-24 5 C-24 6.98 -24 8.96 -24 11 C-23.67 11 -23.34 11 -23 11 C-23 9.02 -23 7.04 -23 5 C-23.33 5 -23.66 5 -24 5 Z M-19 12 C-19 14.97 -19 17.94 -19 21 C-18.67 21 -18.34 21 -18 21 C-18 18.03 -18 15.06 -18 12 C-18.33 12 -18.66 12 -19 12 Z M-24 15 C-24 16.98 -24 18.96 -24 21 C-23.67 21 -23.34 21 -23 21 C-23 19.02 -23 17.04 -23 15 C-23.33 15 -23.66 15 -24 15 Z " fill="#FF0000" transform="translate(454,174)"/>
<path d="M0 0 C1.98 0 3.96 0 6 0 C6 0.66 6 1.32 6 2 C6.99 2 7.98 2 9 2 C9 3.65 9 5.3 9 7 C8.01 7 7.02 7 6 7 C6 7.66 6 8.32 6 9 C7.32 9 8.64 9 10 9 C10 7.02 10 5.04 10 3 C11.98 3 13.96 3 16 3 C16 2.01 16 1.02 16 0 C18.97 0 21.94 0 25 0 C26.09860879 7.07992331 25.94469174 12.3253654 23 19 C23.99 19 24.98 19 26 19 C26 20.65 26 22.3 26 24 C22.7 24 19.4 24 16 24 C19.3 24.33 22.6 24.66 26 25 C26 26.32 26 27.64 26 29 C22.41668375 29.02907084 18.83339792 29.04682263 15.25 29.0625 C14.23421875 29.07087891 13.2184375 29.07925781 12.171875 29.08789062 C11.1921875 29.09111328 10.2125 29.09433594 9.203125 29.09765625 C7.85202637 29.10551147 7.85202637 29.10551147 6.47363281 29.11352539 C4 29 4 29 1.92480469 28.36889648 C-0.43987787 27.7136254 -0.43987787 27.7136254 -4 30 C-4 23.07 -4 16.14 -4 9 C-2.68 9 -1.36 9 0 9 C0 8.34 0 7.68 0 7 C-0.99 7 -1.98 7 -3 7 C-3 5.35 -3 3.7 -3 2 C-2.01 2 -1.02 2 0 2 C0 1.34 0 0.68 0 0 Z M15 7 C15 9.64 15 12.28 15 15 C15.33 15 15.66 15 16 15 C16 12.36 16 9.72 16 7 C15.67 7 15.34 7 15 7 Z M7 14 C7 14.66 7 15.32 7 16 C7.99 16 8.98 16 10 16 C10 15.34 10 14.68 10 14 C9.01 14 8.02 14 7 14 Z M7 20 C7.33 21.65 7.66 23.3 8 25 C9.32 25 10.64 25 12 25 C12 24.01 12 23.02 12 22 C11.34 22 10.68 22 10 22 C10 21.34 10 20.68 10 20 C9.01 20 8.02 20 7 20 Z " fill="#FF0000" transform="translate(460,173)"/>
<path d="M0 0 C0.33 0.33 0.66 0.66 1 1 C2.66617115 1.04063832 4.33388095 1.042721 6 1 C6 1.99 6 2.98 6 4 C6.33 2.68 6.66 1.36 7 0 C8.98 0 10.96 0 13 0 C13 0.99 13 1.98 13 3 C14.98 3 16.96 3 19 3 C18.44081902 8.77820347 17.57272404 14.21453571 16.109375 19.8359375 C15.7417835 22.0911973 15.7417835 22.0911973 17.44140625 23.62109375 C17.95574219 24.07613281 18.47007812 24.53117187 19 25 C19.1875 27.6875 19.1875 27.6875 19 30 C16.0280615 28.87548273 13.66559313 27.77706209 11 26 C10.38125 26.680625 9.7625 27.36125 9.125 28.0625 C5.11315394 30.54984456 3.03482147 29.97340142 -1.484375 29.296875 C-4.86818061 28.8975439 -7.67173169 29.34881707 -11 30 C-11 28.35 -11 26.7 -11 25 C-10.01 25 -9.02 25 -8 25 C-8.33 23.35 -8.66 21.7 -9 20 C-9.66 20 -10.32 20 -11 20 C-10.9278125 18.96359375 -10.855625 17.9271875 -10.78125 16.859375 C-10.68742899 15.4895882 -10.59368292 14.11979626 -10.5 12.75 C-10.45230469 12.06808594 -10.40460938 11.38617188 -10.35546875 10.68359375 C-10.13521281 7.44268497 -10 4.2506634 -10 1 C-6.60169639 0.22324489 -3.48880949 -0.19382275 0 0 Z M10 8 C10.33 9.98 10.66 11.96 11 14 C11.33 14 11.66 14 12 14 C12 12.02 12 10.04 12 8 C11.34 8 10.68 8 10 8 Z M6 17 C6 17.99 6 18.98 6 20 C5.34 20 4.68 20 4 20 C3.67 21.65 3.34 23.3 3 25 C4.99983534 24.20882096 4.99983534 24.20882096 7 23 C7.33 22.01 7.66 21.02 8 20 C7.34 19.01 6.68 18.02 6 17 Z M-4 20 C-3.34 20.66 -2.68 21.32 -2 22 C-1.67 21.34 -1.34 20.68 -1 20 C-1.99 20 -2.98 20 -4 20 Z " fill="#FF0000" transform="translate(499,173)"/>
<path d="M0 0 C1.99954746 -0.04254356 4.00041636 -0.04080783 6 0 C6.33 0.33 6.66 0.66 7 1 C8.4887186 1.08669432 9.981445 1.10703494 11.47265625 1.09765625 C12.82133789 1.09282227 12.82133789 1.09282227 14.19726562 1.08789062 C15.14279297 1.07951172 16.08832031 1.07113281 17.0625 1.0625 C18.01189453 1.05798828 18.96128906 1.05347656 19.93945312 1.04882812 C22.29303065 1.0370011 24.64648477 1.02052025 27 1 C27.40532761 3.32190979 27.73471965 5.65795348 28 8 C26.5625 9.9375 26.5625 9.9375 25 11 C25.99 11.33 26.98 11.66 28 12 C28 13.32 28 14.64 28 16 C26.02 16 24.04 16 22 16 C22 16.66 22 17.32 22 18 C23.65 18 25.3 18 27 18 C27.05399736 19.45792884 27.09279177 20.91642712 27.125 22.375 C27.14820313 23.18710938 27.17140625 23.99921875 27.1953125 24.8359375 C27 27 27 27 25 29 C21.9609375 29.1953125 21.9609375 29.1953125 18.375 29.125 C17.18648437 29.10695312 15.99796875 29.08890625 14.7734375 29.0703125 C13.85820313 29.04710937 12.94296875 29.02390625 12 29 C11.67 28.01 11.34 27.02 11 26 C10.505 26.680625 10.01 27.36125 9.5 28.0625 C7 30 7 30 4.953125 30.04296875 C2.95610564 29.77740767 0.97547682 29.39509536 -1 29 C-0.67 25.7 -0.34 22.4 0 19 C-0.66 19 -1.32 19 -2 19 C-2.24042276 14.91281305 -1.42258812 11.82320557 0 8 C-0.66 8 -1.32 8 -2 8 C-2 6.68 -2 5.36 -2 4 C-1.34 4 -0.68 4 0 4 C0 2.68 0 1.36 0 0 Z M13 5 C13 5.33 13 5.66 13 6 C15.97 6 18.94 6 22 6 C22 5.67 22 5.34 22 5 C19.03 5 16.06 5 13 5 Z M6 8 C7 12 7 12 7 12 Z M13 11 C17 12 17 12 17 12 Z M13 16 C13 16.66 13 17.32 13 18 C14.32 18 15.64 18 17 18 C17 17.34 17 16.68 17 16 C15.68 16 14.36 16 13 16 Z M6 17 C6 18.98 6 20.96 6 23 C6.33 23 6.66 23 7 23 C7 21.02 7 19.04 7 17 C6.67 17 6.34 17 6 17 Z M17 22 C17 22.99 17 23.98 17 25 C18.65 24.67 20.3 24.34 22 24 C22 23.34 22 22.68 22 22 C20.35 22 18.7 22 17 22 Z " fill="#FF0000" transform="translate(522,173)"/>
<path d="M0 0 C1.65 0 3.3 0 5 0 C5 0.99 5 1.98 5 3 C8.93075644 2.42547254 8.93075644 2.42547254 12 0 C15.0390625 0.0234375 15.0390625 0.0234375 18.625 0.375 C19.81351562 0.48585937 21.00203125 0.59671875 22.2265625 0.7109375 C23.14179688 0.80632812 24.05703125 0.90171875 25 1 C25.20086443 4.71599191 25.1519437 5.77208445 23 9 C23.99 9.33 24.98 9.66 26 10 C25.814375 11.155 25.62875 12.31 25.4375 13.5 C24.8764276 17.86389648 25.30367814 21.66733065 26 26 C24.02 26 22.04 26 20 26 C20 27.32 20 28.64 20 30 C18.02 30 16.04 30 14 30 C14 28.68 14 27.36 14 26 C12.2984375 26.2475 12.2984375 26.2475 10.5625 26.5 C5.94736632 27.17129217 1.82251051 27 -3 27 C-3 19.08 -3 11.16 -3 3 C-2.01 3 -1.02 3 0 3 C0 2.01 0 1.02 0 0 Z M8 7 C8 7.99 8 8.98 8 10 C8.99 9.67 9.98 9.34 11 9 C10.67 8.34 10.34 7.68 10 7 C9.34 7 8.68 7 8 7 Z M10 13 C14 14 14 14 14 14 Z M8 17 C8 18.65 8 20.3 8 22 C8.33 20.68 8.66 19.36 9 18 C10.65 18 12.3 18 14 18 C14 17.67 14 17.34 14 17 C12.02 17 10.04 17 8 17 Z " fill="#FF0000" transform="translate(396,173)"/>
<path d="M0 0 C1.68319336 0.10538086 1.68319336 0.10538086 3.40039062 0.21289062 C6.16520843 0.38936836 8.9260702 0.58997301 11.6875 0.8125 C11.6153125 1.71613281 11.543125 2.61976563 11.46875 3.55078125 C11.32953125 5.32001953 11.32953125 5.32001953 11.1875 7.125 C11.04828125 8.88263672 11.04828125 8.88263672 10.90625 10.67578125 C10.76385011 12.717694 10.6875 14.7656279 10.6875 16.8125 C10.00178571 21.49821429 10.00178571 21.49821429 7.6875 23.8125 C9.3375 24.4725 10.9875 25.1325 12.6875 25.8125 C12.6875 26.8025 12.6875 27.7925 12.6875 28.8125 C8.52628358 28.89572433 4.54968708 28.96172469 0.4375 28.25 C-2.54963631 27.77477377 -4.37110369 28.19685891 -7.3125 28.8125 C-10.31440652 28.90377418 -13.31010369 28.87137052 -16.3125 28.8125 C-15.9825 27.4925 -15.6525 26.1725 -15.3125 24.8125 C-13.9925 24.4825 -12.6725 24.1525 -11.3125 23.8125 C-12.9625 23.8125 -14.6125 23.8125 -16.3125 23.8125 C-15.5625 19.0625 -15.5625 19.0625 -13.3125 16.8125 C-13.07037127 14.83121492 -13.07037127 14.83121492 -13.1875 12.6875 C-13.22875 11.40875 -13.27 10.13 -13.3125 8.8125 C-14.6325 8.8125 -15.9525 8.8125 -17.3125 8.8125 C-17.3125 4.8125 -17.3125 4.8125 -15.58203125 2.05078125 C-10.54579409 -1.39696534 -5.91074207 -0.48018302 0 0 Z M-4.3125 20.8125 C-0.3125 21.8125 -0.3125 21.8125 -0.3125 21.8125 Z " fill="#FF0000" transform="translate(601.3125,173.1875)"/>
<path d="M0 0 C1.65 0 3.3 0 5 0 C5.33 0.99 5.66 1.98 6 3 C6.66 3 7.32 3 8 3 C8 2.01 8 1.02 8 0 C9.65 0 11.3 0 13 0 C13 0.99 13 1.98 13 3 C17.29 3 21.58 3 26 3 C26 4.32 26 5.64 26 7 C21.71 7 17.42 7 13 7 C13 8.32 13 9.64 13 11 C13.66 11 14.32 11 15 11 C15 10.01 15 9.02 15 8 C16.98 8 18.96 8 21 8 C21 8.99 21 9.98 21 11 C22.32 11 23.64 11 25 11 C24.4140625 17.15234375 24.4140625 17.15234375 24 19 C23.34 19.33 22.68 19.66 22 20 C22.66 20.7425 23.32 21.485 24 22.25 C26 25 26 25 26 29 C22.17902761 28.46930939 19.93828597 27.50298434 17 25 C15.9171875 26.0209375 15.9171875 26.0209375 14.8125 27.0625 C12 29 12 29 9.625 28.6875 C8.75875 28.460625 7.8925 28.23375 7 28 C4.65834501 28.26871451 2.32115711 28.59038404 0 29 C0 25.04 0 21.08 0 17 C-1.32 17 -2.64 17 -4 17 C-4 13.04 -4 9.08 -4 5 C-2.68 5 -1.36 5 0 5 C0 3.35 0 1.7 0 0 Z M7 7 C8 11 8 11 8 11 Z M5 11 C5 14.3 5 17.6 5 21 C7.4294516 17.3558226 7.16179575 15.28758728 7 11 C6.34 11 5.68 11 5 11 Z M12 19 C11.34 20.65 10.68 22.3 10 24 C11.32 22.68 12.64 21.36 14 20 C13.34 19.67 12.68 19.34 12 19 Z " fill="#FF0000" transform="translate(556,173)"/>
<path d="M0 0 C1.98 0 3.96 0 6 0 C6 0.66 6 1.32 6 2 C9.3 2 12.6 2 16 2 C16 3.32 16 4.64 16 6 C12.7 6 9.4 6 6 6 C6 6.66 6 7.32 6 8 C9.96 8 13.92 8 18 8 C18 9.32 18 10.64 18 12 C15.36 12 12.72 12 10 12 C10 12.66 10 13.32 10 14 C11.65 14 13.3 14 15 14 C15.50833591 15.24663331 16.00631145 16.49749387 16.5 17.75 C16.7784375 18.44609375 17.056875 19.1421875 17.34375 19.859375 C18 22 18 22 18 26 C14.73045798 25.43628586 13.17424117 24.50037734 11 22 C10.690625 22.969375 10.38125 23.93875 10.0625 24.9375 C9 28 9 28 8 29 C5.66702567 29.04092937 3.33294775 29.04241723 1 29 C0.67 28.01 0.34 27.02 0 26 C-0.78375 26.66 -1.5675 27.32 -2.375 28 C-5 30 -5 30 -7 30 C-7 28.35 -7 26.7 -7 25 C-8.72082924 25 -10.34228586 25.5722028 -12 26 C-11.40075776 21.80530429 -10.42500059 17.99000166 -9 14 C-7.35 14 -5.7 14 -4 14 C-4 13.34 -4 12.68 -4 12 C-6.64 12 -9.28 12 -12 12 C-12 10.68 -12 9.36 -12 8 C-8.04 8 -4.08 8 0 8 C0 7.34 0 6.68 0 6 C-3.3 6 -6.6 6 -10 6 C-10 4.68 -10 3.36 -10 2 C-6.7 2 -3.4 2 0 2 C0 1.34 0 0.68 0 0 Z M2 12 C1.67 16.29 1.34 20.58 1 25 C1.99 24.67 2.98 24.34 4 24 C4 20.04 4 16.08 4 12 C3.34 12 2.68 12 2 12 Z M-5 20 C-4 22 -4 22 -4 22 Z " fill="#FF0000" transform="translate(372,173)"/>
<path d="M0 0 C1.98 0 3.96 0 6 0 C6 1.32 6 2.64 6 4 C9.63 4 13.26 4 17 4 C17.0809723 6.43816585 17.14046972 8.87364384 17.1875 11.3125 C17.21263672 12.00279297 17.23777344 12.69308594 17.26367188 13.40429688 C17.33707492 18.469107 17.33707492 18.469107 15.75 20.96875 C12.58695347 22.83268814 9.59421313 22.17676458 6 22 C6 24.64 6 27.28 6 30 C4.02 30 2.04 30 0 30 C0 27.36 0 24.72 0 22 C-3.63 22 -7.26 22 -11 22 C-11 16.06 -11 10.12 -11 4 C-7.37 4 -3.74 4 0 4 C0 2.68 0 1.36 0 0 Z M-5 9 C-5 11.64 -5 14.28 -5 17 C-3.35 17 -1.7 17 0 17 C0 14.36 0 11.72 0 9 C-1.65 9 -3.3 9 -5 9 Z M6 9 C6 11.64 6 14.28 6 17 C7.65 16.67 9.3 16.34 11 16 C11 13.69 11 11.38 11 9 C9.35 9 7.7 9 6 9 Z " fill="#FF0000" transform="translate(628,173)"/>
<path d="M0 0 C1.98 0 3.96 0 6 0 C6.66 1.98 7.32 3.96 8 6 C9.98 6 11.96 6 14 6 C15.73955334 12.43013467 16.24991456 18.34949576 16 25 C15.236875 25.103125 14.47375 25.20625 13.6875 25.3125 C10.97931832 25.73551449 10.97931832 25.73551449 9.671875 27.515625 C7.32417078 29.60003529 5.6597264 29.43329752 2.5625 29.4375 C1.61503906 29.45683594 0.66757812 29.47617188 -0.30859375 29.49609375 C-3.78388716 28.85550991 -4.81330789 27.7389427 -7 25 C-7.36230469 22.43457031 -7.36230469 22.43457031 -7.171875 19.578125 C-7.11386719 18.55332031 -7.05585937 17.52851563 -6.99609375 16.47265625 C-6.91488281 15.40917969 -6.83367188 14.34570312 -6.75 13.25 C-6.68425781 12.17105469 -6.61851562 11.09210938 -6.55078125 9.98046875 C-6.38588202 7.31852411 -6.20164054 4.65937236 -6 2 C-4.02 2 -2.04 2 0 2 C0 1.34 0 0.68 0 0 Z M0 2 C0 9.26 0 16.52 0 24 C1.65 24 3.3 24 5 24 C5 23.01 5 22.02 5 21 C6.65 21 8.3 21 10 21 C9.67 17.37 9.34 13.74 9 10 C8.67 10 8.34 10 8 10 C8 11.65 8 13.3 8 15 C6.02 15 4.04 15 2 15 C1.67 10.71 1.34 6.42 1 2 C0.67 2 0.34 2 0 2 Z " fill="#FF0000" transform="translate(662,173)"/>
<path d="M0 0 C2.30163882 3.45245824 2.34490322 4.94738713 2 9 C1.34 9.66 0.68 10.32 0 11 C0.515625 11.515625 1.03125 12.03125 1.5625 12.5625 C3 15 3 15 2.9375 18.5625 C1.88172463 22.43367634 1.37637359 23.06652111 -2 25 C-4.65625 25.3984375 -4.65625 25.3984375 -7.5 25.375 C-8.90765625 25.38660156 -8.90765625 25.38660156 -10.34375 25.3984375 C-13.41767146 24.93734928 -14.77866281 24.14543728 -17 22 C-18.2227635 18.25019194 -18.34196438 16.68392876 -16.5625 13.125 C-16.046875 12.42375 -15.53125 11.7225 -15 11 C-15.66 10.01 -16.32 9.02 -17 8 C-16.8125 4.4375 -16.8125 4.4375 -16 1 C-10.68622418 -2.54251721 -5.81464661 -2.51582944 0 0 Z M-9 3 C-9.33 4.32 -9.66 5.64 -10 7 C-8.515 7.99 -8.515 7.99 -7 9 C-6.01 8.01 -5.02 7.02 -4 6 C-4.66 5.01 -5.32 4.02 -6 3 C-6.99 3 -7.98 3 -9 3 Z M-8 14 C-8.99 14.66 -9.98 15.32 -11 16 C-10.67 17.32 -10.34 18.64 -10 20 C-8.10820797 20.6814823 -8.10820797 20.6814823 -6 21 C-5.34 20.34 -4.68 19.68 -4 19 C-4.08571661 16.90708843 -4.08571661 16.90708843 -5 15 C-5.99 14.67 -6.98 14.34 -8 14 Z " fill="#FF0000" transform="translate(549,218)"/>
<path d="M0 0 C2.31 0 4.62 0 7 0 C7 3.3 7 6.6 7 10 C10.3 10 13.6 10 17 10 C17 6.7 17 3.4 17 0 C18.98 0 20.96 0 23 0 C23 8.58 23 17.16 23 26 C21.02 26 19.04 26 17 26 C17 22.37 17 18.74 17 15 C13.7 15 10.4 15 7 15 C7 18.63 7 22.26 7 26 C4.69 26 2.38 26 0 26 C0 17.42 0 8.84 0 0 Z " fill="#FF0000" transform="translate(395,217)"/>
<path d="M0 0 C2.4375 1.875 2.4375 1.875 4 4 C4 4.99 4 5.98 4 7 C1.125 7.125 1.125 7.125 -2 7 C-2.66 6.34 -3.32 5.68 -4 5 C-4.99 5 -5.98 5 -7 5 C-7.66 6.32 -8.32 7.64 -9 9 C-8.39671875 8.95359375 -7.7934375 8.9071875 -7.171875 8.859375 C-0.76635514 8.57009346 -0.76635514 8.57009346 2.5625 10.4375 C4.71120785 14.2678053 4.8878631 17.7178284 4 22 C1.87972667 24.71660021 0.45771814 25.77773407 -2.97265625 26.30078125 C-6.82716843 26.43767047 -9.7841111 26.11925733 -13 24 C-16.30838242 18.35066828 -16.57285434 12.23092295 -15 6 C-13.62779915 2.77532799 -12.72703398 1.44429855 -9.75 -0.375 C-6.12965664 -1.19780531 -3.59325392 -0.91464645 0 0 Z M-7 13 C-7.66 13.66 -8.32 14.32 -9 15 C-8.67801034 18.09926819 -8.67801034 18.09926819 -8 21 C-7.01 21.33 -6.02 21.66 -5 22 C-3.33378575 20.8354799 -3.33378575 20.8354799 -2 19 C-2.23043864 16.34533951 -2.23043864 16.34533951 -3 14 C-4.89179203 13.3185177 -4.89179203 13.3185177 -7 13 Z " fill="#FF0000" transform="translate(654,217)"/>
<path d="M0 0 C2.4375 1.875 2.4375 1.875 4 4 C4 4.99 4 5.98 4 7 C2.02 7 0.04 7 -2 7 C-2.33 6.34 -2.66 5.68 -3 5 C-4.97536745 5.34786708 -4.97536745 5.34786708 -7 6 C-7.33 6.66 -7.66 7.32 -8 8 C-6.95199219 8.16435547 -6.95199219 8.16435547 -5.8828125 8.33203125 C-4.97273438 8.49058594 -4.06265625 8.64914063 -3.125 8.8125 C-2.22007812 8.96332031 -1.31515625 9.11414063 -0.3828125 9.26953125 C2 10 2 10 4 13 C4.53667153 16.0675015 4.52633449 18.93063885 4 22 C1.87972667 24.71660021 0.45771814 25.77773407 -2.97265625 26.30078125 C-6.71208129 26.43358326 -9.98631435 26.31821973 -13 24 C-15.3341306 20.45245855 -15.29913125 17.23800544 -15.3125 13.0625 C-15.32925781 11.85722656 -15.34601563 10.65195313 -15.36328125 9.41015625 C-14.97417929 5.75761847 -14.19706552 3.90647945 -12 1 C-7.88898985 -1.51228398 -4.58568083 -1.16726421 0 0 Z M-6 13 C-7.64555699 14.22809091 -7.64555699 14.22809091 -9 16 C-8.99530794 18.10231241 -8.99530794 18.10231241 -8 20 C-6.515 20.99 -6.515 20.99 -5 22 C-3.33378575 20.8354799 -3.33378575 20.8354799 -2 19 C-2.23043864 16.34533951 -2.23043864 16.34533951 -3 14 C-3.99 13.67 -4.98 13.34 -6 13 Z " fill="#FF0000" transform="translate(508,217)"/>
<path d="M0 0 C2.97334584 2.83529764 3.92568056 4.49725084 4.53125 8.59375 C4.5209375 9.8828125 4.510625 11.171875 4.5 12.5 C4.5103125 13.7890625 4.520625 15.078125 4.53125 16.40625 C3.9289652 20.48052952 2.88015591 22.11984409 0 25 C-3.19702389 26.59851194 -6.52252537 26.36570001 -10 26 C-13 24.8125 -13 24.8125 -15 23 C-15.3125 20.3125 -15.3125 20.3125 -15 18 C-12.03 18.99 -9.06 19.98 -6 21 C-5.01 20.01 -4.02 19.02 -3 18 C-3 17.67 -3 17.34 -3 17 C-4.051875 17.0825 -5.10375 17.165 -6.1875 17.25 C-10 17 -10 17 -12.9375 15.5625 C-15.56601936 12.29676382 -15.66192416 10.22713963 -15.42578125 6.125 C-14.80328694 3.0182394 -13.60681525 1.73787683 -11 0 C-7.3312618 -1.64460678 -3.81248755 -0.95312189 0 0 Z M-7 4 C-7.66 4.66 -8.32 5.32 -9 6 C-8.67801034 9.09926819 -8.67801034 9.09926819 -8 12 C-6.35 11.67 -4.7 11.34 -3 11 C-2.30840599 9.15274948 -2.30840599 9.15274948 -2 7 C-2.66 6.01 -3.32 5.02 -4 4 C-4.99 4 -5.98 4 -7 4 Z " fill="#FF0000" transform="translate(590,217)"/>
<path d="M0 0 C3.16439573 2.41493358 4.26777265 4.16616811 5 8 C5.51526653 14.00483692 5.48048693 18.84372307 2 24 C-1.68893116 26.45928744 -4.71641421 26.69305579 -9 26 C-12.44312714 23.8755173 -13.71617547 22.85147359 -15 19 C-15.96117429 6.19050424 -15.96117429 6.19050424 -12 1 C-7.95048126 -1.58719253 -4.5561225 -1.15974027 0 0 Z M-6 4 C-9.13091226 7.97385018 -9.44371576 11.03038352 -9 16 C-8.24267038 18.81571431 -8.24267038 18.81571431 -7 21 C-6.34 21.33 -5.68 21.66 -5 22 C-3.39438885 20.87239923 -3.39438885 20.87239923 -2 19 C-1.56112677 16.13314432 -1.56112677 16.13314432 -1.6875 13 C-1.69330078 11.4221875 -1.69330078 11.4221875 -1.69921875 9.8125 C-1.80240282 6.79472962 -1.80240282 6.79472962 -4 4 C-4.66 4 -5.32 4 -6 4 Z " fill="#FF0000" transform="translate(675,217)"/>
<path d="M0 0 C2.3181362 1.89111111 3.66914015 3.33828031 5 6 C5.17522676 8.26645766 5.26728256 10.53972854 5.3125 12.8125 C5.34988281 14.03582031 5.38726562 15.25914062 5.42578125 16.51953125 C4.92980695 20.5737799 3.84899719 22.14043139 1 25 C-2.06429776 26.53214888 -4.6165642 26.22938548 -8 26 C-11.47836818 24.60865273 -12.66356655 23.68888754 -14.3125 20.3125 C-15.75877354 13.34409114 -15.56387095 8.26749719 -12 2 C-8.02783925 -1.53080955 -5.01955241 -1.36896884 0 0 Z M-6 4 C-8.29783606 7.44675409 -8.29754883 8.93328112 -8.3125 13 C-8.32925781 14.051875 -8.34601563 15.10375 -8.36328125 16.1875 C-8.24605735 19.03172291 -8.24605735 19.03172291 -6.48046875 20.875 C-5.99191406 21.24625 -5.50335938 21.6175 -5 22 C-1.97403736 20.38805234 -1.97403736 20.38805234 -1.3125 18.3125 C-0.60274686 13.06032675 -0.66534335 8.81522935 -3 4 C-3.99 4 -4.98 4 -6 4 Z " fill="#FF0000" transform="translate(444,217)"/>
<path d="M0 0 C5.94 0 11.88 0 18 0 C18 1.65 18 3.3 18 5 C14.37 5 10.74 5 7 5 C7 6.32 7 7.64 7 9 C7.61488281 9.02578125 8.22976563 9.0515625 8.86328125 9.078125 C15.43710021 9.53944563 15.43710021 9.53944563 18.0625 11.6875 C19.56591714 15.39592894 19.51045086 18.46864742 18.25 22.25 C16.70123965 24.41826449 15.45171013 24.98534909 13 26 C8.69754734 26.59264554 4.99145111 26.38444023 0.9375 24.8125 C-1 23 -1 23 -1.3125 20.3125 C-1.209375 19.549375 -1.10625 18.78625 -1 18 C-0.278125 18.309375 0.44375 18.61875 1.1875 18.9375 C3.82494915 19.93386968 6.20939943 20.62289181 9 21 C9.66 20.67 10.32 20.34 11 20 C11 18.35 11 16.7 11 15 C7.37 14.67 3.74 14.34 0 14 C0 9.38 0 4.76 0 0 Z " fill="#FF0000" transform="translate(618,217)"/>
<path d="M0 0 C0 5.28 0 10.56 0 16 C0.99 16 1.98 16 3 16 C3 17.65 3 19.3 3 21 C2.01 21 1.02 21 0 21 C0 22.65 0 24.3 0 26 C-2.31 26 -4.62 26 -7 26 C-7 24.35 -7 22.7 -7 21 C-10.63 21 -14.26 21 -18 21 C-18.76466713 14.93930501 -16.38733328 11.77889274 -12.9375 7.125 C-12.23850586 6.09246094 -12.23850586 6.09246094 -11.52539062 5.0390625 C-11.05166016 4.389375 -10.57792969 3.7396875 -10.08984375 3.0703125 C-9.66566162 2.48008301 -9.24147949 1.88985352 -8.80444336 1.28173828 C-7 0 -7 0 0 0 Z M-8 11 C-9.03013277 12.64821244 -10.03114628 14.31503702 -11 16 C-9.68 16 -8.36 16 -7 16 C-7 14.35 -7 12.7 -7 11 C-7.33 11 -7.66 11 -8 11 Z " fill="#FF0000" transform="translate(571,217)"/>
<path d="M0 0 C1.02480469 0.23976562 1.02480469 0.23976562 2.0703125 0.484375 C3.875 1.25 3.875 1.25 5.875 4.25 C6.3125 7.625 6.3125 7.625 5.875 11.25 C2.9915144 14.79256802 -0.51534542 17.46540933 -4.125 20.25 C-0.825 20.58 2.475 20.91 5.875 21.25 C5.875 22.9 5.875 24.55 5.875 26.25 C-0.395 26.25 -6.665 26.25 -13.125 26.25 C-13.125 20.25 -13.125 20.25 -11.515625 18.0546875 C-10.80921875 17.41789062 -10.1028125 16.78109375 -9.375 16.125 C-8.67890625 15.48304688 -7.9828125 14.84109375 -7.265625 14.1796875 C-6.55921875 13.54289063 -5.8528125 12.90609375 -5.125 12.25 C-3.78475237 10.923617 -2.44935496 9.59225165 -1.125 8.25 C-1.455 7.26 -1.785 6.27 -2.125 5.25 C-4.10991642 5.51676204 -4.10991642 5.51676204 -6.125 6.25 C-6.455 7.24 -6.785 8.23 -7.125 9.25 C-9.105 9.25 -11.085 9.25 -13.125 9.25 C-12.63719512 3.76219512 -12.63719512 3.76219512 -10.3125 1.4375 C-6.66744405 -0.54124466 -4.03523013 -1.0126433 0 0 Z " fill="#FF0000" transform="translate(365.125,216.75)"/>
<path d="M0 0 C1.6848469 2.97325923 1.3655281 5.54169094 1.0625 8.875 C0.4025 9.535 -0.2575 10.195 -0.9375 10.875 C-0.421875 11.390625 0.09375 11.90625 0.625 12.4375 C2.0625 14.875 2.0625 14.875 2 18.4375 C0.94660632 22.2999435 0.41891366 22.9321193 -2.9375 24.875 C-5.375 25.23828125 -5.375 25.23828125 -7.9375 25.1875 C-8.783125 25.18363281 -9.62875 25.17976563 -10.5 25.17578125 C-13.05287729 24.86076274 -14.72763935 24.15896996 -16.9375 22.875 C-16.9375 20.895 -16.9375 18.915 -16.9375 16.875 C-16.39480469 17.10316406 -15.85210938 17.33132812 -15.29296875 17.56640625 C-14.21982422 17.99759766 -14.21982422 17.99759766 -13.125 18.4375 C-12.41730469 18.72753906 -11.70960938 19.01757812 -10.98046875 19.31640625 C-8.7639933 20.12563024 -8.7639933 20.12563024 -5.9375 18.875 C-6.2675 17.555 -6.5975 16.235 -6.9375 14.875 C-8.9175 14.545 -10.8975 14.215 -12.9375 13.875 C-12.9375 12.225 -12.9375 10.575 -12.9375 8.875 C-9.4725 8.38 -9.4725 8.38 -5.9375 7.875 C-6.2675 6.555 -6.5975 5.235 -6.9375 3.875 C-8.91286745 4.22286708 -8.91286745 4.22286708 -10.9375 4.875 C-11.2675 5.535 -11.5975 6.195 -11.9375 6.875 C-13.9175 6.875 -15.8975 6.875 -17.9375 6.875 C-17.57962875 4.22675278 -17.25510089 2.31964124 -15.6875 0.125 C-11.12521737 -3.1337733 -4.76075089 -2.76430697 0 0 Z " fill="#FF0000" transform="translate(613.9375,218.125)"/>
<path d="M0 0 C1.98 0 3.96 0 6 0 C6 5.28 6 10.56 6 16 C6.99 16 7.98 16 9 16 C9 17.65 9 19.3 9 21 C8.01 21 7.02 21 6 21 C6 22.65 6 24.3 6 26 C4.02 26 2.04 26 0 26 C0 24.35 0 22.7 0 21 C-3.96 21 -7.92 21 -12 21 C-11.62859816 14.91829486 -9.85617237 11.75240684 -6 7.125 C-5.5359375 6.54492188 -5.071875 5.96484375 -4.59375 5.3671875 C-1.42633929 1.42633929 -1.42633929 1.42633929 0 0 Z M-1 10 C-2.36176581 11.98075027 -3.69593116 13.98079663 -5 16 C-3.35 16 -1.7 16 0 16 C0 14.02 0 12.04 0 10 C-0.33 10 -0.66 10 -1 10 Z " fill="#FF0000" transform="translate(384,217)"/>
<path d="M0 0 C0 5.28 0 10.56 0 16 C0.99 16 1.98 16 3 16 C3 17.65 3 19.3 3 21 C2.01 21 1.02 21 0 21 C0 22.65 0 24.3 0 26 C-1.98 26 -3.96 26 -6 26 C-6 24.35 -6 22.7 -6 21 C-9.96 21 -13.92 21 -18 21 C-18 14.69386991 -16.03876403 12.5335425 -12.375 7.6875 C-11.85292969 6.94693359 -11.33085937 6.20636719 -10.79296875 5.44335938 C-10.00986328 4.39438477 -10.00986328 4.39438477 -9.2109375 3.32421875 C-8.73962402 2.68572998 -8.26831055 2.04724121 -7.78271484 1.3894043 C-6 0 -6 0 0 0 Z M-7 10 C-9.37015245 12.65484449 -9.37015245 12.65484449 -10 16 C-8.68 16 -7.36 16 -6 16 C-6 14.02 -6 12.04 -6 10 C-6.33 10 -6.66 10 -7 10 Z " fill="#FF0000" transform="translate(468,217)"/>
<path d="M0 0 C6.27 0 12.54 0 19 0 C19 5.78238421 18.91681623 6.80418432 16.125 11.3125 C13.26425261 16.23784338 11.91837951 20.39788502 11 26 C8.69 26 6.38 26 4 26 C4.97108712 18.24579692 6.86182087 12.64286649 11 6 C7.37 5.67 3.74 5.34 0 5 C0 3.35 0 1.7 0 0 Z " fill="#FF0000" transform="translate(472,217)"/>
<path d="M0 0 C2.0625 0.4375 2.0625 0.4375 4 1 C-1.2256631 14.14530159 -9.28152404 23.96236227 -19 34 C-18.01 34.66 -17.02 35.32 -16 36 C-16 36.66 -16 37.32 -16 38 C-14.68 37.34 -13.36 36.68 -12 36 C-11.29296875 37.77734375 -11.29296875 37.77734375 -11 40 C-12.36328125 41.81640625 -12.36328125 41.81640625 -14.3125 43.5625 C-16.64358565 45.68553744 -18.22576361 47.33864542 -20 50 C-23.125 50.1875 -23.125 50.1875 -26 50 C-25.40251953 49.31164062 -25.40251953 49.31164062 -24.79296875 48.609375 C-22.08857938 45.47728415 -19.42008229 42.36122541 -17 39 C-17.5775 38.9175 -18.155 38.835 -18.75 38.75 C-21.6159304 37.79468987 -22.9990764 36.21530827 -25 34 C-24.39671875 33.72929688 -23.7934375 33.45859375 -23.171875 33.1796875 C-13.28024546 27.80689591 -6.73869092 12.98509728 -2.12890625 3.30078125 C-1 1 -1 1 0 0 Z " fill="#FF2E1C" transform="translate(522,94)"/>
<path d="M0 0 C1.9375 0.8125 1.9375 0.8125 4 2 C4.33 2.99 4.66 3.98 5 5 C5.66 5 6.32 5 7 5 C11.3696036 10.65614471 13.7362658 15.87917647 14 23 C11.875 24.1875 11.875 24.1875 9 25 C5.6875 23.625 5.6875 23.625 3 22 C3.04640625 21.43152344 3.0928125 20.86304687 3.140625 20.27734375 C3.3410562 15.98954771 3.31957233 12.94988121 1 9.25 C-0.98791627 6.01963607 -1.54123081 4.6803695 -1 1 C-0.67 0.67 -0.34 0.34 0 0 Z " fill="#FF0D0D" transform="translate(495,77)"/>
<path d="M0 0 C2.86943386 2.78248131 5.51399263 5.6080536 8.0625 8.6875 C12.75891119 14.14577345 18.40006352 18.51269458 24 23 C23.01 23.33 22.02 23.66 21 24 C18.30078125 22.34765625 18.30078125 22.34765625 15.3125 20.0625 C14.31863281 19.31097656 13.32476562 18.55945313 12.30078125 17.78515625 C11.54152344 17.19605469 10.78226562 16.60695313 10 16 C10.66 17.32 11.32 18.64 12 20 C8.51072308 19.68279301 6.44149146 19.33692769 3.625 17.1875 C2 15 2 15 2 11 C0.94082766 9.03615835 0.94082766 9.03615835 -0.5 7.25 C-1.19609375 6.32960938 -1.19609375 6.32960938 -1.90625 5.390625 C-2.2671875 4.93171875 -2.628125 4.4728125 -3 4 C-2.67 3.34 -2.34 2.68 -2 2 C-0.515 2.99 -0.515 2.99 1 4 C0.67 2.68 0.34 1.36 0 0 Z " fill="#FF1313" transform="translate(475,96)"/>
<path d="M0 0 C1.65 0 3.3 0 5 0 C5.02705308 2.41674224 5.04686438 4.8331794 5.0625 7.25 C5.07087891 7.93191406 5.07925781 8.61382812 5.08789062 9.31640625 C5.10428392 12.69342554 5.05628768 15.77291639 4 19 C2.02 19 0.04 19 -2 19 C-1.50873071 12.63440427 -1.00344253 6.30735307 0 0 Z " fill="#FF0000" transform="translate(650,179)"/>
<path d="M0 0 C2 2 2 2 2 4 C2.66 4.33 3.32 4.66 4 5 C4 5.66 4 6.32 4 7 C5.32 6.34 6.64 5.68 8 5 C8.70703125 6.77734375 8.70703125 6.77734375 9 9 C7.63671875 10.81640625 7.63671875 10.81640625 5.6875 12.5625 C3.35641435 14.68553744 1.77423639 16.33864542 0 19 C-3.125 19.1875 -3.125 19.1875 -6 19 C-5.60167969 18.54109375 -5.20335937 18.0821875 -4.79296875 17.609375 C-2.08857938 14.47728415 0.57991771 11.36122541 3 8 C2.4225 7.9175 1.845 7.835 1.25 7.75 C-1.6159304 6.79468987 -2.9990764 5.21530827 -5 3 C-4.360625 2.690625 -3.72125 2.38125 -3.0625 2.0625 C-1.06389179 1.1654837 -1.06389179 1.1654837 0 0 Z " fill="#FF4342" transform="translate(502,125)"/>
<path d="M0 0 C2.78041804 8.34125413 -1.49970321 17.44300085 -5 25 C-7.27840564 28.51576431 -8.99339432 29.70056032 -13 31 C-12.1875 28.0625 -12.1875 28.0625 -11 25 C-10.01 24.67 -9.02 24.34 -8 24 C-7.07455907 22.27922225 -7.07455907 22.27922225 -6.5 20.125 C-6.25378906 19.31933594 -6.00757813 18.51367188 -5.75390625 17.68359375 C-4.70793032 13.96035299 -3.70314406 10.22756402 -2.74609375 6.48046875 C-2.04341487 4.14433739 -1.16173305 2.13898489 0 0 Z " fill="#FF5C30" transform="translate(546,78)"/>
<path d="M0 0 C5.28 0 10.56 0 16 0 C16 1.32 16 2.64 16 4 C10.72 4 5.44 4 0 4 C0 2.68 0 1.36 0 0 Z " fill="#FF0000" transform="translate(514,228)"/>
<path d="M0 0 C1.32 0.33 2.64 0.66 4 1 C1.92090046 5.84419638 -0.13315891 10.55639631 -3 15 C-3.33 14.34 -3.66 13.68 -4 13 C-3.67 12.34 -3.34 11.68 -3 11 C-3.99 11.33 -4.98 11.66 -6 12 C-4.43358249 7.69235185 -2.31663844 3.93828536 0 0 Z " fill="#FF380D" transform="translate(522,94)"/>
<path d="M0 0 C1.485 0.99 1.485 0.99 3 2 C3 2.66 3 3.32 3 4 C3.99 4.33 4.98 4.66 6 5 C6.68620031 6.32338632 7.34786461 7.65949948 8 9 C10.9698803 13.09065341 10.9698803 13.09065341 15 16 C15 16.66 15 17.32 15 18 C11.51072308 17.68279301 9.44149146 17.33692769 6.625 15.1875 C5 13 5 13 5 9 C3.93708343 7.10448849 3.93708343 7.10448849 2.5 5.375 C0 2.19444444 0 2.19444444 0 0 Z " fill="#FF2B2B" transform="translate(472,98)"/>
<path d="M0 0 C3.32462531 2.8956414 4.30151606 4.69268237 5 9 C5.66 9.33 6.32 9.66 7 10 C7.91535656 11.15667784 8.78653288 12.34892918 9.625 13.5625 C10.07101562 14.20316406 10.51703125 14.84382813 10.9765625 15.50390625 C11.31429688 15.99761719 11.65203125 16.49132812 12 17 C11.67 17.66 11.34 18.32 11 19 C6.24926483 14.66844734 0.23523502 8.89505421 -0.16796875 2.21875 C-0.11253906 1.4865625 -0.05710937 0.754375 0 0 Z " fill="#FF3534" transform="translate(457,93)"/>
<path d="M0 0 C3.10742423 1.46818668 5.90471739 3.20025 8.75 5.125 C9.94882812 5.93324219 9.94882812 5.93324219 11.171875 6.7578125 C11.77515625 7.16773437 12.3784375 7.57765625 13 8 C12.67 8.99 12.34 9.98 12 11 C7.88949336 9.54923295 4.46285873 7.65754275 1 5 C1 4.01 1 3.02 1 2 C0.67 1.34 0.34 0.68 0 0 Z " fill="#FF1615" transform="translate(486,118)"/>
<path d="M0 0 C1.98 0 3.96 0 6 0 C6 2.31 6 4.62 6 7 C4.02 7 2.04 7 0 7 C0 4.69 0 2.38 0 0 Z " fill="#FF0000" transform="translate(421,236)"/>
<path d="M0 0 C1.98 0 3.96 0 6 0 C6 2.31 6 4.62 6 7 C4.02 7 2.04 7 0 7 C0 4.69 0 2.38 0 0 Z " fill="#FF0000" transform="translate(421,224)"/>
<path d="M0 0 C0.66 0.33 1.32 0.66 2 1 C1.40912149 4.89979817 -0.47527059 7.17316128 -2.9375 10.1875 C-4.00291016 11.50814453 -4.00291016 11.50814453 -5.08984375 12.85546875 C-7 15 -7 15 -9 16 C-9 14.35 -9 12.7 -9 11 C-7.68 11 -6.36 11 -5 11 C-3.609883 8.09123087 -3.609883 8.09123087 -3 5 C-3 4.01 -3 3.02 -3 2 C-2.01 1.34 -1.02 0.68 0 0 Z " fill="#FF2B1D" transform="translate(529,110)"/>
<path d="M0 0 C-1 2 -1 2 -3.0625 3.8125 C-5.43772664 6.49420749 -5.09072505 7.55244821 -5 11 C-5.99 11.66 -6.98 12.32 -8 13 C-8.99 12.67 -9.98 12.34 -11 12 C-6.33333333 0 -6.33333333 0 0 0 Z " fill="#FF2A11" transform="translate(527,105)"/>
<path d="M0 0 C1.11375 0.1546875 1.11375 0.1546875 2.25 0.3125 C1.125 2.8125 1.125 2.8125 -0.75 5.3125 C-3.9375 5.625 -3.9375 5.625 -6.75 5.3125 C-3.42692308 0.38942308 -3.42692308 0.38942308 0 0 Z " fill="#FF2020" transform="translate(502.75,138.6875)"/>
<path d="M0 0 C0.33 0.99 0.66 1.98 1 3 C1.99 3.33 2.98 3.66 4 4 C2.02 6.97 2.02 6.97 0 10 C-0.33 9.34 -0.66 8.68 -1 8 C-0.67 7.34 -0.34 6.68 0 6 C-0.99 6.33 -1.98 6.66 -3 7 C-1.125 2.25 -1.125 2.25 0 0 Z " fill="#FF4321" transform="translate(519,99)"/>
<path d="M0 0 C0.66 0.66 1.32 1.32 2 2 C1.625 4.125 1.625 4.125 1 6 C-0.65 5.67 -2.3 5.34 -4 5 C-4.33 4.01 -4.66 3.02 -5 2 C-3.35 1.34 -1.7 0.68 0 0 Z " fill="#FF5250" transform="translate(502,125)"/>
<path d="M0 0 C3.81684226 1.55500981 6.19195732 4.03595495 9 7 C5.51375944 6.3543999 2.87501211 5.07639763 0 3 C0 2.01 0 1.02 0 0 Z " fill="#FF1E1D" transform="translate(490,113)"/>
<path d="M0 0 C0.66 0.33 1.32 0.66 2 1 C1.6875 2.875 1.6875 2.875 1 5 C0.01 5.66 -0.98 6.32 -2 7 C-2.125 4.625 -2.125 4.625 -2 2 C-1.34 1.34 -0.68 0.68 0 0 Z " fill="#FF1D1C" transform="translate(509,130)"/>
<path d="M0 0 C1.65 0 3.3 0 5 0 C4.67 1.32 4.34 2.64 4 4 C2.33333333 4 0.66666667 4 -1 4 C-0.67 2.68 -0.34 1.36 0 0 Z " fill="#FF3828" transform="translate(517,113)"/>
</svg>
